<?xml version="1.0" encoding="utf-8"?>
<!-- Generator: Adobe Illustrator 15.1.0, SVG Export Plug-In . SVG Version: 6.00 Build 0)  -->
<!DOCTYPE svg PUBLIC "-//W3C//DTD SVG 1.1//EN" "http://www.w3.org/Graphics/SVG/1.1/DTD/svg11.dtd">
<svg version="1.1" id="Layer_1" xmlns="http://www.w3.org/2000/svg" xmlns:xlink="http://www.w3.org/1999/xlink" x="0px" y="0px"
	 width="612px" height="396px" viewBox="0 0 612 396" enable-background="new 0 0 612 396" xml:space="preserve">
<path fill="#FFFFFF" d="M301.521,200.896c1.239,1.239,2.857,1.856,4.479,1.856s3.24-0.617,4.479-1.856l57.024-57.024
	c2.474-2.474,2.474-6.485,0-8.959c-2.475-2.474-6.485-2.474-8.959,0L306,187.457l-52.544-52.544c-2.474-2.474-6.485-2.474-8.959,0
	s-2.474,6.485,0,8.959L301.521,200.896z"/>
<path fill="#FFFFFF" d="M172.944,158.4c0,72.125,60.93,133.056,133.056,133.056S439.056,230.525,439.056,158.4
	c0-72.126-60.93-133.056-133.056-133.056S172.944,86.274,172.944,158.4z M306,38.016c65.254,0,120.384,55.129,120.384,120.384
	S371.254,278.784,306,278.784c-65.254,0-120.384-55.13-120.384-120.384S240.746,38.016,306,38.016z"/>
</svg>
